<?xml version="1.0" encoding="UTF-8"?>
<svg width="69px" height="69px" viewBox="0 0 69 69" version="1.1" xmlns="http://www.w3.org/2000/svg" xmlns:xlink="http://www.w3.org/1999/xlink">
    <!-- Generator: Sketch 48.1 (47250) - http://www.bohemiancoding.com/sketch -->
    <title>Group 3</title>
    <desc>Created with Sketch.</desc>
    <defs></defs>
    <g id="login-laboratory" stroke="none" stroke-width="1" fill="none" fill-rule="evenodd" transform="translate(-1090.000000, -51.000000)">
        <g id="Group-3" transform="translate(1090.000000, 51.000000)">
            <g id="Group-2" fill="#0082F0">
                <circle id="path4155" cx="34.5" cy="34.5" r="34.5"></circle>
            </g>
            <g id="Group" transform="translate(12.000000, 19.000000)" fill="#FFFFFF">
                <path d="M3.43237949,28.855362 C0.889432212,28.2618403 -0.700524578,25.1418481 0.305719907,22.7198808 C0.601443854,22.0080945 10.9716708,4.04170961 12.1140798,2.26193739 C14.118397,-0.860613418 18.619219,-0.724175522 20.2924709,2.50985525 C20.8067551,3.50385432 20.9239569,5.13582852 20.5508709,6.10792273 C19.9900987,7.56903946 8.64990926,26.7808766 7.87345638,27.5852052 C6.68219863,28.8192279 5.15228671,29.2567856 3.43237949,28.855362 Z" id="path4153-path"></path>
                <path d="M15.2124979,28.6741544 C14.0713639,28.2878676 13.0105389,27.3421235 12.4979973,26.2541319 C12.0691857,25.3438763 11.9850972,23.6306873 12.3258522,22.7469444 C12.7616676,21.6166602 24.204802,2.15815432 24.8306902,1.48305812 C25.6967449,0.548914264 27.004367,0 28.3636304,0 C31.7746038,0 33.9356531,3.61936714 32.3603055,6.69370376 C32.0816725,7.23746283 29.318788,12.0446847 26.220565,17.3764162 C22.3226654,24.084308 20.3541197,27.2758182 19.8300282,27.7370901 C19.097254,28.3820285 17.4528429,29.0195281 16.5735661,28.999542 C16.3378258,28.9941746 15.7253462,28.8477596 15.2124979,28.6741544 Z" id="path4153-path"></path>
                <path d="M27.7357687,28.8759539 C26.2131083,28.3895045 25.0792079,27.4225019 24.5419916,26.1522677 C24.1588226,25.246275 24.1231937,23.5794812 24.4699994,22.7843762 C24.6070855,22.4700859 26.5300602,19.0871579 28.7432768,15.2667573 C37.4395705,0.255422673 36.8772867,1.11555829 38.4528248,0.413891664 C41.982209,-1.15792126 45.8235519,1.99741299 44.8451985,5.66468091 C44.5940128,6.60622988 33.7706676,25.5471918 32.5607167,27.1626472 C31.5768654,28.4762276 29.1651588,29.3326082 27.7357687,28.8759539 Z" id="path4153-path"></path>
            </g>
        </g>
    </g>
</svg>